<svg width="12" height="14" viewBox="0 0 12 14" fill="none" xmlns="http://www.w3.org/2000/svg">
<g clip-path="url(#clip0_1_51)">
<path d="M0.75 4.75L0.281479 4.16435C0.103567 4.30668 0 4.52216 0 4.75H0.75ZM0.75 12.75H0C0 13.1642 0.335786 13.5 0.75 13.5V12.75ZM10.75 12.75V13.5C11.1642 13.5 11.5 13.1642 11.5 12.75H10.75ZM10.75 4.75H11.5C11.5 4.52216 11.3964 4.30668 11.2185 4.16435L10.75 4.75ZM5.75 0.75L6.21852 0.164348C5.94461 -0.0547827 5.55539 -0.0547827 5.28148 0.164348L5.75 0.75ZM4.08333 8.41667V7.66667C3.66912 7.66667 3.33333 8.00245 3.33333 8.41667H4.08333ZM4.08333 12.75H3.33333C3.33333 13.1642 3.66912 13.5 4.08333 13.5V12.75ZM7.41667 12.75V13.5C7.83088 13.5 8.16667 13.1642 8.16667 12.75H7.41667ZM7.41667 8.41667H8.16667C8.16667 8.00245 7.83088 7.66667 7.41667 7.66667V8.41667ZM0 4.75V12.75H1.5V4.75H0ZM0.75 13.5H10.75V12H0.75V13.5ZM11.5 12.75V4.75H10V12.75H11.5ZM11.2185 4.16435L6.21852 0.164348L5.28148 1.33565L10.2815 5.33565L11.2185 4.16435ZM5.28148 0.164348L0.281479 4.16435L1.21852 5.33565L6.21852 1.33565L5.28148 0.164348ZM3.33333 8.41667V12.75H4.83333V8.41667H3.33333ZM4.08333 13.5H7.41667V12H4.08333V13.5ZM8.16667 12.75V8.41667H6.66667V12.75H8.16667ZM7.41667 7.66667H4.08333V9.16667H7.41667V7.66667Z" fill="#888888"/>
</g>
<defs>
<clipPath id="clip0_1_51">
<rect width="12" height="14" fill="white"/>
</clipPath>
</defs>
</svg>
